<?xml version="1.0" encoding="utf-8"?>
<!-- Generator: Adobe Illustrator 23.0.4, SVG Export Plug-In . SVG Version: 6.00 Build 0)  -->
<svg version="1.1" id="Layer_1" xmlns="http://www.w3.org/2000/svg" xmlns:xlink="http://www.w3.org/1999/xlink" x="0px" y="0px"
	 viewBox="0 0 456.78 138.13" style="enable-background:new 0 0 456.78 138.13;" xml:space="preserve">
<style type="text/css">
	.st0{fill:#7D9B58;}
	.st1{fill:#85AD4C;}
	.st2{fill:#95C254;}
	.st3{fill:#5AAED0;}
</style>
<g>
	<path class="st0" d="M134.7,130.78c-0.43,0.82-1.54,2.17-3.77,2.17c-2.56,0-4.42-1.99-4.42-4.4c0-2.8,2.33-4.36,4.42-4.36
		c1.35,0,2.91,0.65,3.77,2.27h1.51c-1.04-2.56-3.44-3.5-5.32-3.5c-3.19,0-5.75,2.54-5.75,5.64c0,2.99,2.41,5.59,5.75,5.59
		c3.21,0,4.64-2.07,5.32-3.4H134.7z M138.26,133.93h1.37v-6.26c0-0.86,0.27-1.62,0.74-2.21c0.53-0.62,1.35-0.98,2.31-1.06v-1.45
		c-1.15,0.08-2.37,0.31-3.01,1.82h-0.04v-1.54h-1.37V133.93z M154.7,129.08c0.06-1.04-0.1-2.23-0.82-3.39
		c-0.76-1.33-2.42-2.72-4.77-2.74c-3.11,0.06-5.55,2.6-5.55,5.64c0,3.17,2.58,5.59,5.58,5.59c2.46,0,4.52-1.62,5.26-3.76h-1.45
		c-0.49,1.33-1.88,2.48-3.83,2.52c-2.09,0-4.05-1.78-4.15-3.87H154.7z M144.96,127.84c0.39-2.52,2.48-3.66,4.17-3.66
		c1.7,0,3.76,1.13,4.19,3.66H144.96z M167.67,123.23h-1.37v1.88h-0.04c-1.13-1.78-3.01-2.15-4.17-2.15c-3.5,0-5.75,2.74-5.75,5.6
		c0,3.07,2.39,5.63,5.75,5.63c1.11,0,2.99-0.37,4.17-2.13h0.04v1.88h1.37V123.23z M157.71,128.61c0-2.72,2.04-4.42,4.38-4.42
		c2.47,0,4.29,2.05,4.29,4.4c0,2.5-1.98,4.36-4.29,4.36C159.47,132.95,157.71,130.99,157.71,128.61 M171.41,133.93h1.37v-9.47h2.56
		v-1.23h-2.56v-3.78h-1.37v3.78h-2.25v1.23h2.25V133.93z M176.79,133.93h1.37v-10.7h-1.37V133.93z M176.79,121.91h1.37v-2.46h-1.37
		V121.91z M180.7,133.93h1.37v-5.89c-0.02-1.39,0.41-2.37,1-2.93c0.74-0.73,1.72-0.92,2.33-0.92c0.61,0,1.58,0.19,2.33,0.92
		c0.59,0.57,1.02,1.55,1.02,2.93v5.89h1.37v-5.89c0-1.76-0.53-2.99-1.33-3.77c-0.98-0.98-2.07-1.31-3.38-1.31
		c-1.82,0-2.88,1-3.29,1.64h-0.04v-1.37h-1.37V133.93z M203.22,123.23h-1.37v1.92h-0.04c-1.23-1.9-3.15-2.19-4.13-2.19
		c-2.82,0-5.59,2.27-5.59,5.68c0,3.36,2.78,5.55,5.59,5.55c1.57,0,3.33-0.69,4.13-2.21h0.04v0.94c0,2.95-2.07,3.99-3.87,3.99
		c-2.6,0-3.66-1.82-4.01-2.7h-1.45c0.98,3.34,3.95,3.93,5.48,3.93c0.43,0,2.9-0.1,4.25-1.98c0.98-1.31,0.98-2.76,0.98-3.91V123.23z
		 M193.46,128.59c0-2.35,1.8-4.4,4.22-4.4c2.41,0,4.25,2.05,4.25,4.4c0,1.82-1.41,4.36-4.25,4.36
		C195.26,132.95,193.46,130.91,193.46,128.59 M222.1,123.23h-1.37v1.88h-0.04c-1.14-1.78-3.02-2.15-4.17-2.15
		c-3.5,0-5.75,2.74-5.75,5.6c0,3.07,2.39,5.63,5.75,5.63c1.12,0,2.99-0.37,4.17-2.13h0.04v1.88h1.37V123.23z M212.14,128.61
		c0-2.72,2.04-4.42,4.38-4.42c2.47,0,4.28,2.05,4.28,4.4c0,2.5-1.97,4.36-4.28,4.36C213.9,132.95,212.14,130.99,212.14,128.61
		 M240.59,123.23h-1.37v1.92h-0.04c-1.23-1.9-3.15-2.19-4.13-2.19c-2.82,0-5.6,2.27-5.6,5.68c0,3.36,2.78,5.55,5.6,5.55
		c1.57,0,3.33-0.69,4.13-2.21h0.04v0.94c0,2.95-2.07,3.99-3.87,3.99c-2.6,0-3.66-1.82-4.01-2.7h-1.45c0.98,3.34,3.95,3.93,5.48,3.93
		c0.43,0,2.9-0.1,4.25-1.98c0.98-1.31,0.98-2.76,0.98-3.91V123.23z M230.83,128.59c0-2.35,1.8-4.4,4.23-4.4
		c2.41,0,4.24,2.05,4.24,4.4c0,1.82-1.41,4.36-4.24,4.36C232.62,132.95,230.83,130.91,230.83,128.59 M243.17,133.93h1.37v-6.26
		c0-0.86,0.27-1.62,0.74-2.21c0.53-0.62,1.35-0.98,2.31-1.06v-1.45c-1.16,0.08-2.37,0.31-3.01,1.82h-0.04v-1.54h-1.37V133.93z
		 M259.61,129.08c0.06-1.04-0.1-2.23-0.82-3.39c-0.76-1.33-2.43-2.72-4.78-2.74c-3.11,0.06-5.55,2.6-5.55,5.64
		c0,3.17,2.58,5.59,5.58,5.59c2.46,0,4.52-1.62,5.26-3.76h-1.45c-0.49,1.33-1.88,2.48-3.83,2.52c-2.09,0-4.05-1.78-4.15-3.87H259.61
		z M249.86,127.84c0.39-2.52,2.48-3.66,4.17-3.66c1.7,0,3.76,1.13,4.19,3.66H249.86z M272.32,129.08c0.06-1.04-0.1-2.23-0.82-3.39
		c-0.76-1.33-2.43-2.72-4.78-2.74c-3.11,0.06-5.55,2.6-5.55,5.64c0,3.17,2.58,5.59,5.58,5.59c2.46,0,4.52-1.62,5.26-3.76h-1.45
		c-0.49,1.33-1.88,2.48-3.84,2.52c-2.09,0-4.05-1.78-4.15-3.87H272.32z M262.58,127.84c0.39-2.52,2.48-3.66,4.17-3.66
		c1.7,0,3.76,1.13,4.19,3.66H262.58z M274.42,133.93h1.37v-5.89c-0.02-1.39,0.41-2.37,1-2.93c0.74-0.73,1.72-0.92,2.33-0.92
		c0.61,0,1.59,0.19,2.33,0.92c0.59,0.57,1.02,1.55,1.02,2.93v5.89h1.37v-5.89c0-1.76-0.53-2.99-1.33-3.77
		c-0.98-0.98-2.07-1.31-3.39-1.31c-1.82,0-2.88,1-3.29,1.64h-0.04v-1.37h-1.37V133.93z M296.97,129.08c0.06-1.04-0.1-2.23-0.82-3.39
		c-0.76-1.33-2.43-2.72-4.78-2.74c-3.11,0.06-5.55,2.6-5.55,5.64c0,3.17,2.58,5.59,5.58,5.59c2.46,0,4.52-1.62,5.26-3.76h-1.45
		c-0.49,1.33-1.88,2.48-3.84,2.52c-2.09,0-4.05-1.78-4.15-3.87H296.97z M287.23,127.84c0.39-2.52,2.48-3.66,4.17-3.66
		c1.7,0,3.76,1.13,4.19,3.66H287.23z M299.07,133.93h1.37v-6.26c0-0.86,0.27-1.62,0.74-2.21c0.53-0.62,1.35-0.98,2.31-1.06v-1.45
		c-1.15,0.08-2.37,0.31-3.01,1.82h-0.04v-1.54h-1.37V133.93z M311.14,133.93h1.37v-9.47h2.74v-1.23h-2.74c0-1-0.04-2.76,2.74-2.76
		v-1.27c-3.95,0.04-4.07,2.55-4.11,4.03h-1.66v1.23h1.66V133.93z M325.83,123.23h-1.37v5.65c0,1.88-0.49,2.58-1.12,3.21
		c-0.69,0.68-1.51,0.86-2.27,0.86c-0.74,0-1.74-0.18-2.48-1.02c-0.47-0.59-0.76-1.47-0.76-2.82v-5.89h-1.37v5.91
		c0,1.13,0.18,2.5,0.94,3.44c0.47,0.59,1.57,1.6,3.68,1.6c2,0,3.03-1.12,3.42-1.92h0.04v1.66h1.29V123.23z M329.66,133.93h1.37
		v-9.47h2.56v-1.23h-2.56v-3.78h-1.37v3.78h-2.25v1.23h2.25V133.93z M344.36,123.23h-1.37v5.65c0,1.88-0.49,2.58-1.12,3.21
		c-0.69,0.68-1.51,0.86-2.27,0.86c-0.74,0-1.74-0.18-2.48-1.02c-0.47-0.59-0.76-1.47-0.76-2.82v-5.89h-1.37v5.91
		c0,1.13,0.18,2.5,0.94,3.44c0.47,0.59,1.57,1.6,3.68,1.6c2,0,3.03-1.12,3.43-1.92h0.04v1.66h1.29V123.23z M346.94,133.93h1.37
		v-6.26c0-0.86,0.27-1.62,0.74-2.21c0.53-0.62,1.35-0.98,2.31-1.06v-1.45c-1.15,0.08-2.37,0.31-3.01,1.82h-0.04v-1.54h-1.37V133.93z
		 M363.37,129.08c0.06-1.04-0.1-2.23-0.82-3.39c-0.76-1.33-2.43-2.72-4.78-2.74c-3.11,0.06-5.55,2.6-5.55,5.64
		c0,3.17,2.58,5.59,5.58,5.59c2.47,0,4.52-1.62,5.26-3.76h-1.45c-0.49,1.33-1.88,2.48-3.84,2.52c-2.09,0-4.05-1.78-4.15-3.87H363.37
		z M353.63,127.84c0.39-2.52,2.48-3.66,4.17-3.66c1.7,0,3.76,1.13,4.19,3.66H353.63z"/>
	<rect x="86.14" class="st0" width="15.67" height="15.67"/>
	<rect x="7.81" y="117.5" class="st0" width="94" height="15.67"/>
	<rect x="86.14" y="55.01" class="st0" width="15.67" height="15.67"/>
	<rect x="7.81" y="55.01" class="st0" width="15.67" height="15.67"/>
	<rect x="7.81" y="101.89" class="st1" width="94" height="15.67"/>
	<rect x="86.14" y="70.58" class="st1" width="15.67" height="15.67"/>
	<rect x="70.47" y="31.36" class="st1" width="15.67" height="15.67"/>
	<rect x="7.81" y="70.58" class="st1" width="15.67" height="15.67"/>
	<rect x="7.81" y="15.66" class="st1" width="15.67" height="15.67"/>
	<rect x="23.49" y="31.36" class="st1" width="15.67" height="15.67"/>
	<rect x="86.14" y="86.16" class="st2" width="15.67" height="15.73"/>
	<rect x="70.47" y="70.62" class="st2" width="15.67" height="15.63"/>
	<rect x="54.84" y="15.66" class="st2" width="15.67" height="15.67"/>
	<rect x="7.81" y="86.22" class="st2" width="47" height="15.67"/>
	<rect x="23.47" y="70.58" class="st2" width="15.67" height="15.67"/>
	<rect x="39.14" y="55.01" class="st2" width="15.67" height="15.67"/>
	<path class="st3" d="M161.82,102.69l-11.14-39.91h-2.61l-11.22,39.91l-13.92-39.91h-3.21l15.95,45.31h2.53l11.14-39.66l11.22,39.66
		h2.53l15.86-45.31h-3.2L161.82,102.69z M224.26,83.7h-41.01c1.52-12.49,9.96-20,20.76-20C214.72,63.71,222.74,71.05,224.26,83.7
		 M227.21,86.49c-0.34-15.27-9.96-25.06-23.71-25.06c-12.65,0-23.03,10.55-23.03,24.04c0,12.91,9.79,23.8,23.45,23.8
		c9.87,0,17.63-5.4,21.85-15.44h-3.04c-3.71,8.44-10.63,12.99-18.98,12.99c-11.22,0-19.91-7.93-20.5-20.33H227.21z M240.88,48.1
		h-2.95v14.68h-8.61v2.95h8.61v42.35h2.95V65.73h8.52v-2.95h-8.52V48.1z M257.16,48.1h-2.87v59.99h2.7V84.72c0-5.4,0-9.7,2.7-13.5
		c3.12-4.47,7.42-6.75,13.08-6.75c10.38,0,15.86,6.5,15.86,19.49v24.13h2.7V83.7c0-5.82-0.26-10.38-3.46-14.68
		c-3.54-4.73-8.44-7.09-14.93-7.09c-6.92,0-11.64,2.53-15.78,8.52V48.1z M342.12,83.7h-41c1.52-12.49,9.96-20,20.75-20
		C332.59,63.71,340.6,71.05,342.12,83.7 M345.08,86.49c-0.34-15.27-9.96-25.06-23.71-25.06c-12.66,0-23.03,10.55-23.03,24.04
		c0,12.91,9.79,23.8,23.45,23.8c9.87,0,17.63-5.4,21.85-15.44h-3.04c-3.71,8.44-10.63,12.99-18.98,12.99
		c-11.22,0-19.91-7.93-20.5-20.33H345.08z M352.08,108.09h2.95V77.8c0-7.59,2.19-11.64,10.12-12.32V62.1
		c-4.39,0.17-7.34,2.11-10.12,5.91v-5.23h-2.95V108.09z M373.17,73.92V48.1h-2.7v59.99h2.7v-10.8c5.48,8.18,11.73,11.98,20.25,11.98
		c13.33,0,23.29-10.8,23.29-24.05c0-12.91-9.53-23.62-23.2-23.62C384.81,61.6,378.23,65.56,373.17,73.92 M373.17,85.9
		c0-12.49,9.11-22.02,20.42-22.02c11.14,0,20.33,9.28,20.33,21.6c0,12.41-9.87,21.52-20.75,21.52
		C382.87,106.99,373.17,97.54,373.17,85.9 M417.97,62.78l17.21,45.05l-5.99,14.93h3.12l24.47-59.99h-3.46l-16.45,41.26l-15.78-41.26
		H417.97z"/>
	<rect y="55.01" class="st3" width="7.83" height="78.16"/>
</g>
<rect x="101.81" y="55.01" class="st3" width="7.83" height="78.16"/>
</svg>
